<svg enable-background="new 0 0 24 24" height="512" viewBox="0 0 24 24" width="512" xmlns="http://www.w3.org/2000/svg"><g id="_x31__x2C_5"><g><path d="m19.25 21h-2.5c-.965 0-1.75-.785-1.75-1.75v-4.5c0-.965.785-1.75 1.75-1.75h2.5c.414 0 .75.336.75.75s-.336.75-.75.75h-2.5c-.138 0-.25.112-.25.25v4.5c0 .138.112.25.25.25h2.5c.414 0 .75.336.75.75s-.336.75-.75.75z"/></g><g><path d="m8.25 21h-2.5c-.965 0-1.75-.785-1.75-1.75v-5.5c0-.414.336-.75.75-.75s.75.336.75.75v5.5c0 .138.112.25.25.25h2.5c.414 0 .75.336.75.75s-.336.75-.75.75z"/></g><g><path d="m13.5 14.5h-4.5c-.414 0-.75-.336-.75-.75s.336-.75.75-.75h4.5c.414 0 .75.336.75.75s-.336.75-.75.75z"/></g><g><path d="m19.25 17.75h-3.5c-.414 0-.75-.336-.75-.75s.336-.75.75-.75h3.5c.414 0 .75.336.75.75s-.336.75-.75.75z"/></g><g><path d="m11.5 4c-.192 0-.384-.073-.53-.22l-1.97-1.969-1.97 1.969c-.293.293-.768.293-1.061 0s-.293-.768 0-1.061l2.5-2.5c.293-.293.768-.293 1.061 0l2.5 2.5c.293.293.293.768 0 1.061-.146.147-.338.22-.53.22z"/></g><g><path d="m15 11.5c-.192 0-.384-.073-.53-.22l-2.5-2.5c-.293-.293-.293-.768 0-1.061s.768-.293 1.061 0l1.969 1.97 1.97-1.97c.293-.293.768-.293 1.061 0s.293.768 0 1.061l-2.5 2.5c-.147.147-.339.22-.531.22z"/></g><g><path d="m11.25 13c-.414 0-.75.336-.75.75v6.5c0 .414.336.75.75.75s.75-.336.75-.75v-6.5c0-.414-.336-.75-.75-.75z"/></g><g><path d="m9 0c-.414 0-.75.336-.75.75v10c0 .414.336.75.75.75s.75-.336.75-.75v-10c0-.414-.336-.75-.75-.75z"/></g><g><path d="m15.75 10.75v-10c0-.414-.336-.75-.75-.75s-.75.336-.75.75v10c0 .414.336.75.75.75s.75-.336.75-.75z"/></g></g></svg>